<!-- icon666.com - MILLIONS OF FREE VECTOR ICONS --><svg viewBox="0 0 64 64" xmlns="http://www.w3.org/2000/svg"><g id="Layer_2" data-name="Layer 2"><path d="m53.8484 40h-43.697a5.8327 5.8327 0 0 1 .4-1.2l3.84-8.31a5.9978 5.9978 0 0 1 5.45-3.49h24.3177a5.9976 5.9976 0 0 1 5.45 3.49l3.84 8.31a5.8264 5.8264 0 0 1 .3993 1.2z" fill="#ffba55"></path><path d="m15.1228 29.316a3.026 3.026 0 0 1 3.3181 2.894 21.656 21.656 0 0 0 -1.47 1.62s3.46-.83 7.25 2.67a34.1009 34.1009 0 0 1 7.7791-1.5 34.1009 34.1009 0 0 1 7.78 1.5c3.79-3.5 7.2495-2.67 7.2495-2.67a21.6458 21.6458 0 0 0 -1.47-1.62 3.0259 3.0259 0 0 1 3.318-2.8941 5.9883 5.9883 0 0 0 -4.7184-2.3159h-24.3183a5.9885 5.9885 0 0 0 -4.718 2.316z" fill="#e4ad5d"></path><path d="m53.9984 41.32v13.68a6.0045 6.0045 0 0 1 -5.9995 6h-31.9979a6.0045 6.0045 0 0 1 -6-6v-13.68a5.8082 5.8082 0 0 1 .15-1.32h43.697a5.8026 5.8026 0 0 1 .1504 1.32z" fill="#f73c4f"></path><path d="m37.1694 46.4543c-1.1869-1.2014-3.3081-1.1236-5.1589.0466-1.8385-1.2249-3.9586-1.3655-5.1576-.2-1.4566 1.4166-1.001 4.2215 1.0177 6.2648a6.1745 6.1745 0 0 0 3.9294 1.9276c.0562.0035.1127.0053.17.0064s.1136.0005.17-.0013a6.0451 6.0451 0 0 0 3.9484-1.81c2.0386-1.9837 2.5229-4.7746 1.081-6.2341z" fill="#dcdcf9"></path><path d="m35.2074 46.67a1.9514 1.9514 0 0 0 -1.45-.5414 5.3966 5.3966 0 0 0 -1.7684.7258 5.5114 5.5114 0 0 0 -1.7535-.7761 1.9268 1.9268 0 0 0 -1.4848.496c-.9116.8867-.6265 2.6421.6369 3.9209a3.8643 3.8643 0 0 0 2.4592 1.2061c.0352.0022.0706.0034.1062.004s.0711 0 .1062-.0008a3.7831 3.7831 0 0 0 2.4708-1.1333c1.2767-1.2412 1.58-2.9879.6774-3.9012z" fill="#f0f0ff"></path><path d="m53.8484 40h-2.8819a5.0885 5.0885 0 0 1 .0322.5718v11.8146a5.1858 5.1858 0 0 1 -5.1815 5.1818h-27.6345a5.1857 5.1857 0 0 1 -5.1815-5.1818v-11.8145a5.0885 5.0885 0 0 1 .0322-.5719h-2.882a5.8082 5.8082 0 0 0 -.15 1.32v13.68a6.0045 6.0045 0 0 0 6 6h31.9975a6.0045 6.0045 0 0 0 5.9995-6v-13.68a5.8026 5.8026 0 0 0 -.15-1.32z" fill="#b72d3e"></path><path d="m32 11a13 13 0 1 0 12.9991 13 13 13 0 0 0 -12.9991-13zm0 22a9 9 0 1 1 8.9994-9 9.01 9.01 0 0 1 -8.9994 9z" fill="#f0f0ff"></path><path d="m32 33c-4.97 0-8.9994 3.134-8.9994 7h17.9987c0-3.8659-4.0293-7-8.9993-7z" fill="#ffbd5a"></path><path d="m32 33a9.682 9.682 0 0 0 -7.7831 3.4969l.0031.0031a34.1009 34.1009 0 0 1 7.78-1.5 34.1009 34.1009 0 0 1 7.78 1.5l.0037-.0031a9.6824 9.6824 0 0 0 -7.7837-3.4969z" fill="#e4ad5d"></path><path d="m38 3h-12l-2 3 8 9 7.999-9z" fill="#8dc1f3"></path><path d="m13.1783 15.2687c-1.55-.7291-3.549.0839-4.91 1.8419-2.1808-.5244-4.2542.0806-4.9945 1.6074-.9 1.855.509 4.3641 3.1459 5.6042a6.287 6.287 0 0 0 4.4212.4639c.0548-.0163.1094-.0343.1642-.0531s.1086-.0391.1616-.06a6.1564 6.1564 0 0 0 3.1424-3.0978c1.2588-2.5974.7527-5.4207-1.1308-6.3065z" fill="#b72d3e"></path><path d="m11.38 16.1573a1.9885 1.9885 0 0 0 -1.5726-.01 5.4977 5.4977 0 0 0 -1.4374 1.3069 5.6135 5.6135 0 0 0 -1.9438-.1273 1.9635 1.9635 0 0 0 -1.2458.9892c-.563 1.161.3185 2.7313 1.9689 3.5075a3.9349 3.9349 0 0 0 2.767.29c.0343-.01.0685-.0214.1028-.0332s.068-.0245.1011-.0378a3.853 3.853 0 0 0 1.9667-1.9389c.7881-1.6249.4714-3.392-.7069-3.9464z" fill="#f73c4f"></path><path d="m48.8217 8.2672c1.55-.7291 3.549.084 4.91 1.842 2.1808-.5244 4.2542.0806 4.9945 1.6075.9 1.855-.509 4.3642-3.1459 5.6044a6.287 6.287 0 0 1 -4.4212.4639c-.0548-.0163-.1094-.0343-.1642-.0531s-.1086-.0391-.1616-.06a6.1566 6.1566 0 0 1 -3.1424-3.0979c-1.2588-2.5975-.7527-5.4209 1.1308-6.3068z" fill="#b72d3e"></path><path d="m50.6205 9.1559a1.9889 1.9889 0 0 1 1.5726-.01 5.5 5.5 0 0 1 1.4369 1.3069 5.616 5.616 0 0 1 1.9438-.1273 1.9636 1.9636 0 0 1 1.2458.9893c.563 1.161-.3185 2.7314-1.9689 3.5076a3.9349 3.9349 0 0 1 -2.767.29c-.0343-.01-.0685-.0214-.1028-.0332s-.068-.0245-.1011-.0378a3.853 3.853 0 0 1 -1.9667-1.9389c-.7881-1.6251-.4714-3.3925.7074-3.9466z" fill="#f73c4f"></path><path d="m33.0248 45.3389c-2.1576-1.2022-4.46-1.125-5.8692.2461a3.9414 3.9414 0 0 0 -1.1547 2.8623 6.9579 6.9579 0 0 0 2.158 4.8222 7.1575 7.1575 0 0 0 4.5711 2.2217c.0732.0049.1474.0078.2392.0088l.1914-.002a7.0331 7.0331 0 0 0 4.6237-2.0937 6.8573 6.8573 0 0 0 2.2147-4.7178 4.0089 4.0089 0 0 0 -1.119-2.9355c-1.39-1.4063-3.6869-1.5479-5.8552-.4121zm3.3652 6.6318a5.1029 5.1029 0 0 1 -3.2859 1.5283l-.1177.001-.1357-.0059a5.2215 5.2215 0 0 1 -3.2693-1.6308 5.0332 5.0332 0 0 1 -1.5814-3.3955 1.8483 1.8483 0 0 1 2.0043-1.9707 4.572 4.572 0 0 1 2.452.8359 1 1 0 0 0 1.0883.0137c1.4843-.9414 3.0935-1.0186 3.9138-.1895a2.0874 2.0874 0 0 1 .5416 1.5088 4.9278 4.9278 0 0 1 -1.61 3.3047zm-24.2617-26.2266c.0713-.0214.1421-.0449.1977-.0644l.2036-.0752a7.1486 7.1486 0 0 0 3.679-3.5938 6.9217 6.9217 0 0 0 .4755-5.2519 4.0423 4.0423 0 0 0 -2.08-2.3955c-1.81-.8506-4.0476-.1856-5.7208 1.6513-2.4745-.3974-4.6418.4766-5.51 2.2666a3.9769 3.9769 0 0 0 -.1082 3.1188 7.0247 7.0247 0 0 0 3.7283 3.8271 7.9258 7.9258 0 0 0 3.3415.7745 6.11 6.11 0 0 0 1.7934-.2575zm-6.9776-5.0107a2.0531 2.0531 0 0 1 .0225-1.5791 2.7094 2.7094 0 0 1 2.5647-1.2314 5.5366 5.5366 0 0 1 1.2963.16 1.0019 1.0019 0 0 0 1.0244-.36c1.099-1.419 2.6175-2.0586 3.6941-1.5489a2.1184 2.1184 0 0 1 1.0463 1.251 4.9989 4.9989 0 0 1 -.39 3.7129 5.2075 5.2075 0 0 1 -2.6019 2.6016l-.2607.0908a5.3383 5.3383 0 0 1 -3.7014-.4131 5.095 5.095 0 0 1 -2.6943-2.6838zm55.4753-9.4534c-.8662-1.79-3.036-2.667-5.5094-2.2666-1.6737-1.8379-3.91-2.503-5.72-1.6524v.001a4.0384 4.0384 0 0 0 -2.0809 2.3955 6.9284 6.9284 0 0 0 .4755 5.252 7.133 7.133 0 0 0 3.6658 3.5869c.07.0293.1445.0566.2031.0762.0693.0253.14.0478.206.0683a6.1351 6.1351 0 0 0 1.8007.26 7.9209 7.9209 0 0 0 3.34-.7744 7.02 7.02 0 0 0 3.7283-3.8282 3.9688 3.9688 0 0 0 -.1091-3.1183zm-1.776 2.4524a5.0969 5.0969 0 0 1 -2.6951 2.6836 5.3446 5.3446 0 0 1 -3.7048.4121l-.2539-.0888a5.2115 5.2115 0 0 1 -2.6053-2.6026 5 5 0 0 1 -.39-3.7129 2.1236 2.1236 0 0 1 1.0468-1.2529c1.077-.5029 2.5955.1328 3.6931 1.5508a1.0034 1.0034 0 0 0 1.0243.36c1.7655-.4248 3.35.0166 3.8621 1.0713a2.0571 2.0571 0 0 1 .0228 1.5794zm-7.3344 16.334a6.99 6.99 0 0 0 -4.7005-3.8446 13.9311 13.9311 0 0 0 -8.8517-15.301l3.7833-4.2567a.9991.9991 0 0 0 .0849-1.2188l-2-3a1 1 0 0 0 -.8316-.4453h-12a1 1 0 0 0 -.832.4453l-2 3a1 1 0 0 0 .0844 1.2188l3.7836 4.2567a13.932 13.932 0 0 0 -8.8511 15.3034 6.99 6.99 0 0 0 -4.7013 3.8422l-3.8376 8.3184a7.0377 7.0377 0 0 0 -.6445 2.9326v13.6826a7.0079 7.0079 0 0 0 7 7h31.9973a7.0083 7.0083 0 0 0 7-7v-13.6826a7.0589 7.0589 0 0 0 -.6436-2.9326zm-6.5165-6.0664a11.99 11.99 0 0 1 -5.391 10.0024 10.2582 10.2582 0 0 0 -2.0539-1.1143 9.98 9.98 0 0 0 -2.5258-18.6653l1.5006-1.6884a12.0172 12.0172 0 0 1 8.4701 11.4656zm-19.9986 0a8 8 0 1 1 15.7356 2h-15.4724a7.9611 7.9611 0 0 1 -.2632-2zm9.6663-19h-3.3333l-1.3335-1h6zm-.9138 2-.753 3.39-.7536-3.39zm6.164 21a7.9808 7.9808 0 0 1 -13.8342 0zm-5.1054-16.5433 1.0846-4.88 2.8575-2.1433.986 1.4783zm-7.5656-7.0226 2.8583 2.1439 1.0841 4.8788-4.9278-5.5447zm2.2247 8.1 1.5007 1.6883a9.98 9.98 0 0 0 -2.5258 18.6654 10.2507 10.2507 0 0 0 -2.0536 1.1143 11.9865 11.9865 0 0 1 3.0787-21.468zm-13.1707 18.3702a4.99 4.99 0 0 1 3.3442-2.7367 13.8691 13.8691 0 0 0 .872 2.1408 8.4792 8.4792 0 0 0 -4.0762 4.3342 1 1 0 0 0 1.868.7148 6.517 6.517 0 0 1 3.2443-3.3359 14.1547 14.1547 0 0 0 3.3123 3.3424 7.9952 7.9952 0 0 0 -.8392 1.1146 1 1 0 1 0 1.706 1.043c1.3086-2.1387 4.1613-3.5215 7.2686-3.5215s5.9605 1.3828 7.2681 3.5215a1 1 0 1 0 1.7069-1.043 8.0052 8.0052 0 0 0 -.8394-1.1149 14.1541 14.1541 0 0 0 3.3124-3.3426 6.5164 6.5164 0 0 1 3.2444 3.3364 1 1 0 1 0 1.867-.7148 8.468 8.468 0 0 0 -4.0764-4.3326 13.8713 13.8713 0 0 0 .8739-2.1458 4.993 4.993 0 0 1 3.3421 2.74l3.7368 8.0958h-40.8713zm37.6985 24.0957a5.0057 5.0057 0 0 1 -5 5h-31.9975a5.0057 5.0057 0 0 1 -5-5v-13.6826c0-.1068.01-.2117.017-.3174h41.9636c.0066.1057.0169.2106.0169.3174z" fill="#603913"></path></g></svg>